# ProBuilder 5.2.3
# https://unity3d.com/unity/features/worldbuilding/probuilder
# 12/3/2024 1:10:07 PM

mtllib ./FinalBoard.mtl
o FinalBoard

g FinalBoard
v 3.35 0.562082 2.4
v 3.35 0.562082 1.2
v 2.75 0.562082 2.4
v -1.75 0.562082 3
v 2.35 0.562082 3
v -3 0.562082 4.5
v -3.35 0.562082 2.4
v -3.75 0.562082 0.6
v -3.35 0.562082 1.2
v -4.35 0.562082 0.6
v -4.35 0.562082 -0.6
v -2.75 0.562082 2.4
v -2.35 0.562082 3
v -3 0.562082 -4.5
v -5 0.562082 0
v -3.35 0.562082 -1.2
v -3.35 0.562082 -2.4
v -1.75 0.562082 -3
v -2.35 0.562082 -3
v -2.75 0.562082 -2.4
v -1.35 0.562082 -3.6
v 3 0.562082 -4.5
v 0.7499999 0.562082 -3.6
v 2.35 0.562082 -3
v 1.75 0.562082 -3
v 1.35 0.562082 -3.6
v 4.75 0.562082 0
v 3.75 0.562082 0.6
v 4.35 0.562082 0.6
v -3.75 0.562082 -1.8
v -3.75 0.562082 -0.6
v -4.75 0.562082 0
v -3.75 0.562082 1.8
v 3.75 0.562082 1.8
v 5 0.562082 0
v 4.35 0.562082 -0.6
v 3.35 0.562082 -1.2
v 3.75 0.562082 -0.6
v 2.75 0.562082 -2.4
v 3.75 0.562082 -1.8
v 3.35 0.562082 -2.4
v -0.35 0.562082 -3
v 0.35 0.562082 -3
v -0.7499999 0.562082 -3.6
v 1.75 0.562082 3
v 3 0.562082 4.5
v 1.35 0.562082 3.6
v 0.75 0.562082 3.6
v -1.35 0.562082 3.6
v 0.35 0.562082 3
v -0.35 0.562082 3
v -0.75 0.562082 3.6
v 3.35 1.562082 2.4
v 3.35 1.562082 1.2
v 2.75 1.562082 2.4
v -1.75 1.562082 3
v 2.35 1.562082 3
v -3 1.562082 4.5
v -3.35 1.562082 2.4
v -3.75 1.562082 0.6
v -3.35 1.562082 1.2
v -4.35 1.562082 0.6
v -4.35 1.562082 -0.6
v -2.75 1.562082 2.4
v -2.35 1.562082 3
v -3 1.562082 -4.5
v -5 1.562082 0
v -3.35 1.562082 -1.2
v -3.35 1.562082 -2.4
v -1.75 1.562082 -3
v -2.35 1.562082 -3
v -2.75 1.562082 -2.4
v -1.35 1.562082 -3.6
v 3 1.562082 -4.5
v 0.75 1.562082 -3.6
v 2.35 1.562082 -3
v 1.75 1.562082 -3
v 1.35 1.562082 -3.6
v 4.75 1.562082 0
v 3.75 1.562082 0.6
v 4.35 1.562082 0.6
v -3.75 1.562082 -1.8
v -3.75 1.562082 -0.6
v -4.75 1.562082 0
v -3.75 1.562082 1.8
v 3.75 1.562082 1.8
v 5 1.562082 0
v 4.35 1.562082 -0.6
v 3.35 1.562082 -1.2
v 3.75 1.562082 -0.6
v 2.75 1.562082 -2.4
v 3.75 1.562082 -1.8
v 3.35 1.562082 -2.4
v 3 1.562082 4.5
v 1.75 1.562082 3
v -0.75 1.562082 -3.6
v -0.35 1.562082 -3
v 0.35 1.562082 -3
v 0.35 1.562082 3
v -0.35 1.562082 3
v 1.35 1.562082 3.6
v 0.75 1.562082 3.6
v -0.75 1.562082 3.6
v -1.35 1.562082 3.6

vt 0.2799512 0.7657722
vt 0.2799512 0.6674896
vt 0.3290924 0.7657722
vt 0.697652 0.8149135
vt 0.3618533 0.8149135
vt 0.8000298 0.9377667
vt 0.8286955 0.7657722
vt 0.8614563 0.6183484
vt 0.8286955 0.6674896
vt 0.9105976 0.6183484
vt 0.9105976 0.5200658
vt 0.7795542 0.7657722
vt 0.7467933 0.8149135
vt 0.8000298 0.2006474
vt 0.9638339 0.5692071
vt 0.8286955 0.4709245
vt 0.8286955 0.372642
vt 0.697652 0.3235007
vt 0.7467933 0.3235007
vt 0.7795542 0.372642
vt 0.6648912 0.2743594
vt 0.3086169 0.2006474
vt 0.4928967 0.2743594
vt 0.3618533 0.3235007
vt 0.4109946 0.3235007
vt 0.4437554 0.2743594
vt 0.1652882 0.5692071
vt 0.2471903 0.6183484
vt 0.198049 0.6183484
vt 0.8614563 0.4217832
vt 0.8614563 0.5200658
vt 0.9433585 0.5692071
vt 0.8614563 0.7166309
vt 0.2471903 0.7166309
vt 0.1448127 0.5692071
vt 0.198049 0.5200658
vt 0.2799512 0.4709245
vt 0.2471903 0.5200658
vt 0.3290924 0.372642
vt 0.2471903 0.4217832
vt 0.2799512 0.372642
vt 0.582989 0.3235007
vt 0.5256576 0.3235007
vt 0.6157499 0.2743594
vt 0.4109946 0.8149135
vt 0.3086169 0.9377667
vt 0.4437554 0.8640548
vt 0.4928967 0.8640548
vt 0.6648912 0.8640548
vt 0.5256576 0.8149135
vt 0.582989 0.8149135
vt 0.6157499 0.8640548
vt 0.2812431 0.7649451
vt 0.2812431 0.6669811
vt 0.3302251 0.7649451
vt 0.6975898 0.8139271
vt 0.3628797 0.8139271
vt 0.7996355 0.9363821
vt 0.8282083 0.7649451
vt 0.860863 0.6179991
vt 0.8282083 0.6669811
vt 0.9098449 0.6179991
vt 0.9098449 0.5200351
vt 0.7792264 0.7649451
vt 0.7465717 0.8139271
vt 0.7996355 0.2016521
vt 0.9629087 0.5690171
vt 0.8282083 0.4710531
vt 0.8282083 0.3730891
vt 0.6975898 0.3241071
vt 0.7465717 0.3241071
vt 0.7792264 0.3730891
vt 0.6649351 0.2751251
vt 0.3098159 0.2016521
vt 0.4934983 0.2751251
vt 0.3628797 0.3241071
vt 0.4118617 0.3241071
vt 0.4445163 0.2751251
vt 0.1669518 0.5690171
vt 0.2485884 0.6179991
vt 0.1996065 0.6179991
vt 0.860863 0.4220711
vt 0.860863 0.5200351
vt 0.9424996 0.5690171
vt 0.860863 0.7159631
vt 0.2485884 0.7159631
vt 0.1465427 0.5690171
vt 0.1996065 0.5200351
vt 0.2812431 0.4710531
vt 0.2485884 0.5200351
vt 0.3302251 0.3730891
vt 0.2485884 0.4220711
vt 0.2812431 0.3730891
vt 0.8118068 0.08081201
vt 0.8118068 0.1255433
vt 0.8600743 0.08081201
vt 0.8600743 0.1255433
vt 0.763274 0.009562192
vt 0.5401639 0.00956215
vt 0.763274 0.05423084
vt 0.5401639 0.0542308
vt 0.2691407 0.00956215
vt 0.2691407 0.0542308
vt 0.04667765 0.00956215
vt 0.04667765 0.0542308
vt 0.5388662 0.009562256
vt 0.5388662 0.0542309
vt 0.2697966 0.009562256
vt 0.2697966 0.0542309
vt 0.9853256 0.009562226
vt 0.9853256 0.05423087
vt 0.04792574 0.009562135
vt 0.04792574 0.05423078
vt 0.3365136 0.08083542
vt 0.3365136 0.1255445
vt 0.3837605 0.08083542
vt 0.3837605 0.1255445
vt 0.431188 0.08083542
vt 0.431188 0.1255445
vt 0.2412987 0.125499
vt 0.9081516 0.08083416
vt 0.9081516 0.1255433
vt 0.9568521 0.08083416
vt 0.9568521 0.1255433
vt 0.008934647 0.08084664
vt 0.8107564 0.0808342
vt 0.8107564 0.1255433
vt 0.8591262 0.0808342
vt 0.8591262 0.1255433
vt 0.3368182 0.125499
vt 0.3848239 0.08078985
vt 0.3848239 0.125499
vt 0.4319771 0.08078988
vt 0.4319771 0.125499
vt 0.4794709 0.08078988
vt 0.4794709 0.125499
vt 0.527087 0.08078986
vt 0.527087 0.125499
vt 0.7643074 0.08078985
vt 0.7643074 0.125499
vt 0.7643074 0.1255211
vt 0.6694145 0.08078985
vt 0.6694145 0.125499
vt 0.7172986 0.08078985
vt 0.7172986 0.125499
vt 0.5737904 0.08078985
vt 0.5737904 0.125499
vt 0.6212353 0.08078985
vt 0.6212353 0.125499
vt 0.2890324 0.08078985
vt 0.2890324 0.125499
vt 0.2412987 0.08078985
vt 0.05097869 0.08078985
vt 0.05097869 0.125499
vt 0.09763148 0.08078985
vt 0.09763148 0.125499
vt 0.1449886 0.08078985
vt 0.1449886 0.125499
vt 0.1929742 0.08078985
vt 0.1929742 0.125499
vt 0.9066311 0.08083551
vt 0.9066311 0.1255446
vt 0.9551773 0.08083551
vt 0.9551773 0.1255446
vt 0.5753266 0.08083555
vt 0.5753266 0.1255447
vt 0.7660877 0.08083551
vt 0.7660877 0.1255446
vt 0.812835 0.08083551
vt 0.812835 0.1255446
vt 0.6233977 0.08083555
vt 0.6233977 0.1255447
vt 0.6707565 0.08083555
vt 0.6707565 0.1255447
vt 0.7186221 0.08083555
vt 0.7186221 0.1255447
vt 0.7651997 0.08083555
vt 0.7651997 0.1255447
vt 0.005620867 0.08078985
vt 0.005620867 0.125499
vt 0.4793998 0.1255445
vt 0.5276911 0.08083542
vt 0.5276911 0.1255445
vt 0.6714151 0.1255446
vt 0.6714151 0.08083542
vt 0.7190391 0.08083551
vt 0.7190391 0.1255446
vt 0.1930003 0.08083542
vt 0.1930003 0.1255445
vt 0.2410774 0.1255445
vt 0.2888575 0.08083542
vt 0.2888575 0.1255445
vt 0.1450133 0.08083542
vt 0.1450133 0.1255445
vt 0.04980959 0.08084664
vt 0.008934647 0.1255558
vt 0.04980959 0.1255558
vt 0.09735712 0.08083542
vt 0.09735712 0.1255445
vt 0.5832985 0.3241071
vt 0.5261529 0.3241071
vt 0.6159531 0.2751251
vt 0.4118617 0.8139271
vt 0.3098159 0.9363821
vt 0.4445163 0.8629091
vt 0.4934983 0.8629091
vt 0.6649351 0.8629091
vt 0.5261529 0.8139271
vt 0.5832985 0.8139271
vt 0.6159531 0.8629091

vn 0 -1 0
vn 0 -0.75 0
vn 0 -0.6666667 0
vn 0 1 0
vn 0 0.75 0
vn -0.8320502 0 0.5547004
vn -0.9138116 0 -0.4061384
vn -0.9138116 0 0.4061384
vn 0 0 -1
vn 0 0 1
vn 0.9138116 0 -0.4061384
vn 0.9138116 0 0.4061384
vn -0.8320504 0 -0.5547
vn 0.8320502 0 0.5547004
vn 0.8320503 0 -0.5547003
vn 0 0.6666667 0

usemtl top
f 95/203/4 101/205/4 94/204/4
f 89/89/4 90/90/4 88/88/4
f 89/89/4 88/88/4 92/92/4
f 88/88/4 79/79/4 87/87/4
f 88/88/4 87/87/4 74/74/4
f 92/92/4 88/88/4 74/74/4
f 74/74/4 93/93/4 92/92/4
f 74/74/4 91/91/4 93/93/4
f 91/91/4 74/74/4 76/76/4
f 72/72/4 66/66/4 69/69/4
f 71/71/4 66/66/4 72/72/4
f 71/71/4 70/70/4 66/66/4
f 73/73/5 66/66/4 70/70/4
f 73/73/5 74/74/4 66/66/4
f 73/73/5 75/75/5 74/74/4
f 78/78/4 77/77/4 76/76/4
f 75/75/5 78/78/4 74/74/4
f 78/78/4 76/76/4 74/74/4
f 87/87/4 79/79/4 81/81/4
f 87/87/4 81/81/4 86/86/4
f 80/80/4 54/54/4 86/86/4
f 81/81/4 80/80/4 86/86/4
f 86/86/4 53/53/4 94/204/4
f 94/204/4 87/87/4 86/86/4
f 60/60/4 85/85/4 61/61/4
f 60/60/4 62/62/4 85/85/4
f 82/82/4 69/69/4 66/66/4
f 82/82/4 66/66/4 67/67/4
f 82/82/4 83/83/4 68/68/4
f 63/63/4 83/83/4 82/82/4
f 63/63/4 82/82/4 67/67/4
f 84/84/4 63/63/4 67/67/4
f 85/85/4 62/62/4 84/84/4
f 85/85/4 84/84/4 67/67/4
f 59/59/4 85/85/4 67/67/4
f 58/58/4 59/59/4 67/67/4
f 94/204/4 53/53/4 55/55/4
f 95/203/4 94/204/4 57/57/4
f 55/55/4 57/57/4 94/204/4
f 56/56/4 65/65/4 58/58/4
f 59/59/4 58/58/4 65/65/4
f 64/64/4 59/59/4 65/65/4
f 97/200/4 98/201/4 96/202/16
f 98/201/4 75/75/5 96/202/16
f 101/205/4 102/206/4 94/204/4
f 58/58/4 94/204/4 103/210/4
f 94/204/4 102/206/4 103/210/4
f 102/206/4 99/208/4 103/210/4
f 99/208/4 100/209/4 103/210/4
f 104/207/4 58/58/4 103/210/4
f 56/56/4 58/58/4 104/207/4
f 96/202/16 75/75/5 73/73/5

usemtl insides
f 40/96/6 92/97/6 93/95/6 41/94/6
f 48/182/9 102/183/9 101/181/9 47/135/9
f 50/165/15 99/166/15 102/183/15 48/182/15
f 51/171/9 100/172/9 99/166/9 50/165/9
f 52/185/13 103/184/13 100/172/13 51/171/13
f 49/186/9 104/187/9 103/184/9 52/185/9
f 13/169/9 65/170/9 56/168/9 4/167/9
f 4/167/15 56/168/15 104/187/15 49/186/15
f 12/128/15 64/129/15 65/170/15 13/169/15
f 7/161/9 59/162/9 64/129/9 12/128/9
f 33/163/15 85/164/15 59/162/15 7/161/15
f 9/165/14 61/166/14 85/164/14 33/163/14
f 8/171/15 60/172/15 61/166/15 9/165/15
f 10/173/9 62/174/9 60/172/9 8/171/9
f 32/175/15 84/176/15 62/174/15 10/173/15
f 11/177/14 63/178/14 84/176/14 32/175/14
f 31/153/10 83/154/10 63/180/10 11/179/10
f 16/155/14 68/156/14 83/154/14 31/153/14
f 30/157/15 82/158/15 68/156/15 16/155/15
f 17/159/14 69/160/14 82/158/14 30/157/14
f 20/152/10 72/120/10 69/160/10 17/159/10
f 19/150/14 71/151/14 72/120/14 20/152/14
f 18/114/10 70/130/10 71/151/10 19/150/10
f 21/131/14 73/132/14 70/130/14 18/114/14
f 42/135/6 97/136/6 96/134/6 44/133/6
f 43/137/10 98/138/10 97/136/10 42/135/10
f 23/146/14 75/147/14 98/138/14 43/137/14
f 26/148/10 78/149/10 75/147/10 23/146/10
f 25/142/6 77/143/6 78/149/6 26/148/6
f 24/144/10 76/145/10 77/143/10 25/142/10
f 39/139/6 91/140/6 76/145/6 24/144/6
f 41/94/10 93/95/10 91/141/10 39/139/10
f 37/121/13 89/122/13 92/97/13 40/96/13
f 38/123/6 90/124/6 89/122/6 37/121/6
f 36/128/10 88/129/10 90/127/10 38/126/10
f 36/125/6 27/195/6 79/197/6 88/196/6
f 29/198/13 81/199/13 79/197/13 27/195/13
f 28/193/9 80/194/9 81/199/9 29/198/9
f 2/188/13 54/189/13 80/194/13 28/193/13
f 34/152/6 86/190/6 54/189/6 2/188/6
f 1/191/13 53/192/13 86/190/13 34/152/13
f 3/114/9 55/115/9 53/192/9 1/191/9
f 5/116/13 57/117/13 55/115/13 3/114/13
f 45/118/9 95/119/9 57/117/9 5/116/9
f 47/135/13 101/181/13 95/119/13 45/118/13
f 96/134/10 73/132/10 21/131/10 44/133/10

usemtl outsides
f 14/106/9 66/107/9 74/109/9 22/108/9
f 58/103/8 67/105/8 15/104/8 6/102/8
f 94/101/10 58/103/10 6/102/10 46/99/10
f 74/111/11 87/100/11 35/98/11 22/110/11
f 67/100/7 66/101/7 14/99/7 15/98/7
f 35/102/12 87/103/12 94/113/12 46/112/12

usemtl bot
f 21/21/2 23/23/2 44/44/3
f 49/49/1 6/6/1 4/4/1
f 52/52/1 6/6/1 49/49/1
f 52/52/1 51/51/1 50/50/1
f 52/52/1 50/50/1 48/48/1
f 52/52/1 48/48/1 46/46/1
f 52/52/1 46/46/1 6/6/1
f 46/46/1 48/48/1 47/47/1
f 44/44/3 23/23/2 43/43/1
f 44/44/3 43/43/1 42/42/1
f 13/13/1 7/7/1 12/12/1
f 13/13/1 6/6/1 7/7/1
f 6/6/1 13/13/1 4/4/1
f 46/46/1 5/5/1 3/3/1
f 5/5/1 46/46/1 45/45/1
f 3/3/1 1/1/1 46/46/1
f 15/15/1 7/7/1 6/6/1
f 15/15/1 33/33/1 7/7/1
f 15/15/1 32/32/1 33/33/1
f 32/32/1 10/10/1 33/33/1
f 15/15/1 11/11/1 32/32/1
f 15/15/1 30/30/1 11/11/1
f 30/30/1 31/31/1 11/11/1
f 16/16/1 31/31/1 30/30/1
f 15/15/1 14/14/1 30/30/1
f 14/14/1 17/17/1 30/30/1
f 33/33/1 10/10/1 8/8/1
f 9/9/1 33/33/1 8/8/1
f 34/34/1 35/35/1 46/46/1
f 46/46/1 1/1/1 34/34/1
f 34/34/1 28/28/1 29/29/1
f 34/34/1 2/2/1 28/28/1
f 34/34/1 29/29/1 35/35/1
f 29/29/1 27/27/1 35/35/1
f 22/22/1 24/24/1 26/26/1
f 22/22/1 26/26/1 23/23/2
f 24/24/1 25/25/1 26/26/1
f 22/22/1 23/23/2 21/21/2
f 14/14/1 22/22/1 21/21/2
f 18/18/1 14/14/1 21/21/2
f 14/14/1 18/18/1 19/19/1
f 20/20/1 14/14/1 19/19/1
f 17/17/1 14/14/1 20/20/1
f 24/24/1 22/22/1 39/39/1
f 41/41/1 39/39/1 22/22/1
f 40/40/1 41/41/1 22/22/1
f 22/22/1 36/36/1 40/40/1
f 22/22/1 35/35/1 36/36/1
f 35/35/1 27/27/1 36/36/1
f 40/40/1 36/36/1 37/37/1
f 36/36/1 38/38/1 37/37/1
f 46/46/1 47/47/1 45/45/1

